<svg id="Layer_1" data-name="Layer 1" xmlns="http://www.w3.org/2000/svg" viewBox="0 0 238.8 48.44"><defs><style>.cls-1{fill:#fff;}.cls-2{fill:#ffcd03;}</style></defs><title>iK_Logo_WY</title><path class="cls-1" d="M357.06,280.4a5.17,5.17,0,0,1,6.9,0,4.8,4.8,0,0,1,0,6.65,5.2,5.2,0,0,1-6.9,0,4.8,4.8,0,0,1,0-6.65Zm7.83,32.9a2.72,2.72,0,0,1-.8,2.32,3,3,0,0,1-2,.51H361a5.89,5.89,0,0,1-3.73-.92,4,4,0,0,1-1.11-3.2v-18.6a2.74,2.74,0,0,1,.77-2.32,3.32,3.32,0,0,1,2-.57l1.13.06a5.86,5.86,0,0,1,3.74.92,4,4,0,0,1,1.11,3.2Z" transform="translate(-301.55 -273.42)"/><path class="cls-1" d="M379.52,303.24v9.68a2.84,2.84,0,0,1-.95,2.52,3.51,3.51,0,0,1-2.19.58l-1.08,0a5.55,5.55,0,0,1-3.77-1c-.72-.66-1.08-1.86-1.08-3.59V284.71a2.84,2.84,0,0,1,.88-2.49,3.65,3.65,0,0,1,2.16-.61l1.14.05a5.57,5.57,0,0,1,3.76,1q1.08,1,1.08,3.6v8.79l9.43-11.67a3.24,3.24,0,0,1,2.68-1.44,1.78,1.78,0,0,1,.62.06,5.68,5.68,0,0,1,3.35,1.55,4.17,4.17,0,0,1,1.18,3,5.73,5.73,0,0,1-.64,2.68,14.07,14.07,0,0,1-2.19,2.91l-6.44,6.91,4.12,4.82,1.39,1.6,3.5,4a5.53,5.53,0,0,1,.88,1.27,2.9,2.9,0,0,1,.26,1.22,2.09,2.09,0,0,1-.21,1,4.31,4.31,0,0,1-1.13,1.77,4.83,4.83,0,0,1-3.45,1.32,5.4,5.4,0,0,1-3.07-.83,14,14,0,0,1-3-3Z" transform="translate(-301.55 -273.42)"/><path class="cls-1" d="M426,313.3a2.62,2.62,0,0,1-.88,2.34,3.21,3.21,0,0,1-2,.55l-1-.06a5.92,5.92,0,0,1-3.74-.92,4,4,0,0,1-1.11-3.2V300.57q0-3.81-3.66-3.81a6.75,6.75,0,0,0-3.45.87V313.3a2.62,2.62,0,0,1-.88,2.34,3.22,3.22,0,0,1-2,.55l-1-.06a5.91,5.91,0,0,1-3.73-.92,4,4,0,0,1-1.11-3.2V284.49a2.75,2.75,0,0,1,.77-2.31,3.32,3.32,0,0,1,2-.57l1.14.05a5.84,5.84,0,0,1,3.73.93,4,4,0,0,1,1.11,3.19v5.05a16.49,16.49,0,0,1,2.37-.64,13.35,13.35,0,0,1,2.68-.28c3.5,0,6.18.86,8,2.6s2.78,4.25,2.78,7.55Z" transform="translate(-301.55 -273.42)"/><path class="cls-1" d="M453,313q-3.64,3.53-9.87,3.53t-9.74-3.61q-3.76-3.51-3.76-9.74a14.81,14.81,0,0,1,1-5.49,11.93,11.93,0,0,1,2.78-4.25,13.48,13.48,0,0,1,9.74-3.55,15.65,15.65,0,0,1,5.46.92,12.13,12.13,0,0,1,4.33,2.68,11.76,11.76,0,0,1,2.76,4.25,15.28,15.28,0,0,1,.95,5.44Q456.61,309.49,453,313Zm-13.2-5a3.91,3.91,0,0,0,3.38,1.7,3.76,3.76,0,0,0,3.32-1.7,8.38,8.38,0,0,0,1.16-4.79,8.2,8.2,0,0,0-1.18-4.77,4.2,4.2,0,0,0-6.7,0,10.12,10.12,0,0,0,0,9.56Z" transform="translate(-301.55 -273.42)"/><path class="cls-1" d="M483.2,309.8a3.36,3.36,0,0,1,1.18,2.31,3.27,3.27,0,0,1-.2,1,4.21,4.21,0,0,1-4.38,3,5.32,5.32,0,0,1-2.89-.78,12.43,12.43,0,0,1-2.83-2.73L469,306.29v7a2.72,2.72,0,0,1-.79,2.32,3.08,3.08,0,0,1-2,.51h-1.13a5.94,5.94,0,0,1-3.74-.92,4,4,0,0,1-1.1-3.2V284.55a2.81,2.81,0,0,1,.79-2.35,3.3,3.3,0,0,1,2-.59l1.13.05a5.87,5.87,0,0,1,3.74.93,4,4,0,0,1,1.1,3.19v13.61l7.53-7.73a3.42,3.42,0,0,1,2.47-1.24l.78.1a6,6,0,0,1,2.93,1.47,3.39,3.39,0,0,1,1.08,2.5,3.88,3.88,0,0,1-.64,2.24,12.51,12.51,0,0,1-2.24,2.3l-1.55,1.34-3,2.57Z" transform="translate(-301.55 -273.42)"/><path class="cls-1" d="M512.83,313.3a2.65,2.65,0,0,1-.88,2.34,3.22,3.22,0,0,1-2,.55l-1-.06a5.94,5.94,0,0,1-3.74-.92,4,4,0,0,1-1.1-3.2V300.57q0-3.81-3.66-3.81a6.7,6.7,0,0,0-3.45.87V313.3a2.65,2.65,0,0,1-.88,2.34,3.23,3.23,0,0,1-2,.55l-1-.06a5.94,5.94,0,0,1-3.74-.92,4,4,0,0,1-1.1-3.2V284.49a2.72,2.72,0,0,1,.77-2.31,3.28,3.28,0,0,1,2-.57l1.13.05a5.87,5.87,0,0,1,3.74.93,4,4,0,0,1,1.11,3.19v5.05a16.49,16.49,0,0,1,2.37-.64,13.25,13.25,0,0,1,2.67-.28c3.51,0,6.19.86,8,2.6s2.79,4.25,2.79,7.55Z" transform="translate(-301.55 -273.42)"/><path class="cls-1" d="M537.15,292.3a8.24,8.24,0,0,1,3.19,7v11.55a3.4,3.4,0,0,1-.59,2,5.9,5.9,0,0,1-1.93,1.63q-3.3,2-9.43,2c-3.82,0-6.76-.72-8.84-2.14a7.11,7.11,0,0,1-3.12-6.26,7,7,0,0,1,2.12-5.47q2.1-1.9,6.54-2.37l6.75-.72v-.36q0-2.78-5.1-2.78a21.33,21.33,0,0,0-5.1.72,7.25,7.25,0,0,1-1.5.26,1.79,1.79,0,0,1-1.59-.85,3.67,3.67,0,0,1-.57-2.09,3.41,3.41,0,0,1,.59-2.11,5,5,0,0,1,2-1.39,20.23,20.23,0,0,1,7.37-1.08C532,289.91,535,290.7,537.15,292.3ZM530.42,310a4.16,4.16,0,0,0,1.47-.49v-4.13l-3.71.31c-2.2.14-3.3.86-3.3,2.17,0,1.54,1.17,2.32,3.51,2.32A11.52,11.52,0,0,0,530.42,310Z" transform="translate(-301.55 -273.42)"/><path class="cls-2" d="M338.69,273.42,307.54,277a6,6,0,0,0-6,6v29.26a6,6,0,0,0,6,6l31.15,3.6a6,6,0,0,0,6-6V279.41A6,6,0,0,0,338.69,273.42Zm-29.4,10.51a3.18,3.18,0,0,1,2.35-.87A3.21,3.21,0,0,1,314,284a3.16,3.16,0,0,1,.91,2.34,3.67,3.67,0,0,1-.88,2.47,2.85,2.85,0,0,1-2.31,1.07,3.07,3.07,0,0,1-2.38-1.15,3.74,3.74,0,0,1-.93-2.45A3.07,3.07,0,0,1,309.29,283.93Zm5.13,26.55c-.43.51-.84.31-1.35.42a3.18,3.18,0,0,1-.75,0c-.91-.09-1.86.13-2.55-.6s-.78-.91-.81-2.27c-.08-4.21,0-9.7-.09-13.95a2.29,2.29,0,0,1,.47-1.86c.41-.57.8-.44,1.34-.55a3.1,3.1,0,0,1,.75,0c.94.13,1.88,0,2.57.76a3.07,3.07,0,0,1,.83,2.52c.1,4.21,0,9.62.1,13.83C315,309.87,314.86,310,314.42,310.48Zm24.86.7a2.87,2.87,0,0,1-.8,1.24,3.19,3.19,0,0,1-2.37.88,2.62,2.62,0,0,1-2.13-.66,13.32,13.32,0,0,1-2.36-2.79c-1.67-2.3-4.65-5.56-6.55-8.05,0,2.31-.08,5.44-.06,7.58,0,1.11-.09,1.3-.59,1.82s-.93.37-1.5.46a2.46,2.46,0,0,1-.72,0c-.94-.2-1.9.25-2.62-.65s-.8-.73-.87-2.55c-.3-7,0-15.9-.14-23,0-1.34.07-1.38.57-2s.94-.3,1.52-.44a2.86,2.86,0,0,1,.78,0c1,.22,1.91,0,2.65.9s.76,1.43.8,3c.05,2,0,5.49-.05,7.76,2.71-3.6,5.69-7.84,7.94-11.53.73-1.18.93-.85,1.75-1.2a.45.45,0,0,1,.43,0,3.89,3.89,0,0,1,2.39.87,2.65,2.65,0,0,1,1,2,2.78,2.78,0,0,1-.25,1.85,17.72,17.72,0,0,1-1.73,3c-1.47,2.22-3.69,5.86-5.42,8.31,1,1.44,2.7,3.83,3.54,5s.65.88,1.38,1.89,2,2.67,2.73,3.67a4.77,4.77,0,0,1,.65,1,1.91,1.91,0,0,1,.17.86A1.48,1.48,0,0,1,339.28,311.18Z" transform="translate(-301.55 -273.42)"/></svg>